<?xml version="1.0" encoding="UTF-8"?>
<svg width="128pt" height="128pt" version="1.1" viewBox="0 0 128 128" xmlns="http://www.w3.org/2000/svg">
 <path d="m88.047 65.387c-4.7461-4.1484-11-8.0312-18.762-11.641-7.7617-3.6133-14.766-5.9141-21.004-6.8984-5.8203-0.89453-9.3906-0.38672-10.703 1.5234-0.058594 0.089844-0.13281 0.22266-0.22266 0.40234-0.0625 0.14844-0.13672 0.32812-0.22656 0.53906l-0.042968 0.17969c-0.16406 0.91797 0.10547 2.0078 0.80469 3.2656 0.92578 1.5859 2.6133 3.4492 5.0625 5.5977 4.7461 4.1523 11 8.0312 18.762 11.645 7.7656 3.6133 14.766 5.9141 21.004 6.8984 3.1953 0.47656 5.7031 0.56641 7.5234 0.26953 1.3516-0.27734 2.3359-0.76953 2.957-1.4805l0.089843-0.13281 0.042969-0.046876c0.12109-0.17578 0.21094-0.34375 0.26953-0.49219 0.089844-0.17969 0.14844-0.32812 0.17969-0.44531 0.59766-2.2422-1.3125-5.3008-5.7344-9.1836m-22.391-6.582c0.53906-0.38672 1.1953-0.58203 1.9727-0.58203 0.50781-0.058594 1.0898 0 1.7461 0.17969 0.71484 0.17969 1.3711 0.41797 1.9688 0.71484 0.62891 0.30078 1.2109 0.62891 1.7461 0.98828 0.74609 0.47656 1.3438 0.9375 1.793 1.3867 0.41797 0.41797 0.76172 0.89453 1.0312 1.4336 0.20703 0.53516 0.35547 1.0312 0.44531 1.4766-0.11719 0.35938-0.17969 0.74609-0.17969 1.1641l3.1797 1.4336-0.49219 1.2109-3.1797-1.4805c-0.17969 0.30078-0.37109 0.57031-0.58203 0.80859-0.26953 0.29688-0.53516 0.56641-0.80469 0.80469-0.39062 0.17969-0.79297 0.38672-1.2109 0.62891-0.47656 0.17578-0.96875 0.37109-1.4766 0.58203l-2.375-2.6445c0.41797-0.23828 0.83594-0.41797 1.2539-0.53516 0.30078-0.17969 0.55469-0.34375 0.76172-0.49219 0.14844-0.21094 0.28516-0.375 0.40234-0.49609 0.089844-0.11719 0.21094-0.23828 0.35938-0.35547l-4.3867-1.9258c-0.44922 0.44531-0.92578 0.85156-1.4336 1.207-0.50781 0.32812-1.0742 0.56641-1.7031 0.71875-0.44922 0-0.87891-0.03125-1.2969-0.089844-0.39062-0.0625-0.79297-0.10547-1.2109-0.13672-0.35938-0.14844-0.67188-0.26563-0.94141-0.35547-0.35547-0.15234-0.55078-0.23828-0.58203-0.26953-2.3867-1.0469-3.9844-2.2852-4.7891-3.7188-0.35938-0.59766-0.52344-1.1484-0.49219-1.6562 0-0.44922 0.027343-0.86719 0.085937-1.2539l-3.582-1.6133 0.53906-1.207 3.7617 1.6133c0.14844-0.32812 0.34375-0.58203 0.58203-0.76172 0.26953-0.17969 0.58203-0.35938 0.94141-0.53906 0.29688-0.26953 0.625-0.43359 0.98438-0.49219 0.44922-0.12109 0.92578-0.23828 1.4336-0.35938l2.4609 2.7344c-0.44531 0.058594-0.76172 0.16406-0.9375 0.3125-0.26953 0.03125-0.44922 0.14844-0.53906 0.35938-0.12109 0.058594-0.25391 0.11719-0.40234 0.17578-0.17969 0.15234-0.34375 0.31641-0.49219 0.49609l4.0742 1.8359c0.47656-0.53906 1-0.97266 1.5664-1.3008m-5.6875 2.1484c0.23828 0.24219 0.55469 0.43359 0.94141 0.58203 0.23828 0.12109 0.47656 0.21094 0.71484 0.26953 0.21094-0.058594 0.41797-0.089844 0.62891-0.089844 0.11719-0.11719 0.26953-0.20703 0.44922-0.26562 0.11719-0.17969 0.20703-0.31641 0.26562-0.40625l-3.582-1.6094c0 0.089844 0.015625 0.19141 0.046875 0.3125 0 0.11719 0.011718 0.23828 0.042968 0.35938 0.03125 0.29688 0.19531 0.58203 0.49219 0.84766m8.9141 0.80859c-0.15234 0.058593-0.25391 0.17969-0.31641 0.35938l3.8086 1.7461c0-0.12109 0.015625-0.25391 0.042969-0.40625 0-0.17578-0.027344-0.35547-0.089844-0.53516-0.14844-0.23828-0.32812-0.49219-0.53516-0.76172-0.30078-0.17969-0.64062-0.35937-1.0312-0.53906-0.32812-0.17578-0.58203-0.26562-0.76172-0.26562-0.23828-0.03125-0.46094 0-0.67188 0.089844-0.17969 0.058593-0.32812 0.16406-0.44531 0.3125m-32.918-11.512-2.8633 6.2266c-0.62891 2.2383 1.3281 5.3008 5.8633 9.1797 4.8984 4.2695 11.301 8.2422 19.215 11.914 7.9102 3.6992 15.031 6.0312 21.359 6.9844 5.9102 0.98437 9.5391 0.53906 10.883-1.3438l2.8672-6.1797-0.13672 0.13672c-0.625 0.74609-1.625 1.2539-3 1.5195-1.8789 0.30078-4.4492 0.21094-7.7031-0.26562-6.3594-1.0156-13.492-3.3594-21.406-7.0312-7.9102-3.7031-14.285-7.6758-19.121-11.914-2.5078-2.1797-4.2383-4.0742-5.1953-5.6875-0.6875-1.2852-0.95312-2.3867-0.80469-3.3125l0.042969-0.22656m-3.9414 10.75-0.49219 0.40234-2.4609 3.3594-1.5703 3.043-0.625 1.9727-0.40234 2.1484-0.089844 1.1641-0.046874 0.22656 0.089843 5.1484 0.089844 0.35938c0.089844 0.89453 0.31641 1.8516 0.67188 2.8633l1.7031 3.6758 0.22266 0.22266v0.089843l0.046875 0.089844 0.042969 0.042969 0.3125 0.53906 0.67188 0.85156 0.17969 0.17578 0.13672 0.22656 1.0273 1.1172 0.089844 0.13672 1.2539 1.1172c0.0625 0.089844 0.12109 0.089844 0.17969 0 0.12109-0.058594 0.12109-0.11719 0-0.17578l-2.418-3.4961-0.53906-0.98438-0.089844-0.26953-0.26562-0.49219-0.49219-1.4336-0.089844-0.089844v-0.13281l-0.17969-0.35938-0.26953-1.2539c-0.17969-0.65625-0.29688-1.5352-0.35938-2.6406l-0.042968-1.3867 0.042968-0.089843-0.042968-0.089844 0.042968-0.22656 0.40234-3.4453 1.0312-3.4961 0.046875-0.3125 2.2383-7.8828 0.089844-0.58203c0.027344-0.089843 0.015625-0.14844-0.046875-0.17969l-0.089843 0.046875m64.535-19.391-0.089844-0.13672-1.3008-1.1641c-0.058594-0.089844-0.10156-0.074219-0.13281 0.046875-0.14844 0-0.16406 0.027343-0.046875 0.089843l2.4648 3.5352 0.089844 0.26953 0.17969 0.17969 1.1172 2.7305 0.089844 0.13672v0.089844l0.44922 1.6094c0.12109 0.62891 0.22266 1.5078 0.3125 2.6445l0.046875 1.7461-0.13672 1.3867 0.046876 0.22656-1.3438 5.418-0.046876 0.3125-2.2383 7.8828-0.089843 0.53516c-0.058594 0.089843-0.058594 0.15234 0 0.17969l0.13672-0.042969 0.3125-0.22266 0.26953-0.35938 0.40234-0.40234 1.9688-2.7773 1.5234-3.0469 0.089843-0.3125 0.17969-0.3125 0.40234-1.3438 0.40234-2.1953 0.089843-1.1211 0.046875-0.17578-0.089844-5.1953-0.089843-0.40234c-0.12109-0.86719-0.35938-1.8086-0.71875-2.8242l-0.49219-1.3438-1.1641-2.2812-0.22266-0.26953-0.046874-0.13672-0.042969-0.042969v-0.089843l-0.3125-0.49219-0.71875-0.85156-0.17969-0.17969-0.13281-0.22266z" fill="#00449e"/>
</svg>
