<?xml version="1.0" encoding="UTF-8"?>
<svg width="128pt" height="128pt" version="1.1" viewBox="0 0 128 128" xmlns="http://www.w3.org/2000/svg">
 <g fill="#3b6af9">
  <path d="m15.801 104c-2.2109 0-4-1.7891-4-4v-84c0-2.2109 1.7891-4 4-4h60c2.2109 0 4 1.7891 4 4v12c0 2.2109-1.7891 4-4 4-2.2109 0-4-1.7891-4-4v-8h-52v80c0 2.2109-1.7891 4-4 4z"/>
  <path d="m75.801 104h-24c-2.2109 0-4-1.7891-4-4s1.7891-4 4-4h20v-8c0-2.2109 1.7891-4 4-4 2.2109 0 4 1.7891 4 4v12c0 2.2109-1.7891 4-4 4z"/>
  <path d="m20.762 106.25c-0.5 0-1.0078-0.097656-1.5-0.29297l-4.6055-1.8633c-2.0469-0.82812-3.0352-3.1602-2.207-5.2109 0.82812-2.0469 3.1602-3.0273 5.207-2.2109l4.6055 1.8633c2.0469 0.82812 3.0352 3.1602 2.207 5.2109-0.62891 1.5547-2.125 2.5039-3.707 2.5039z"/>
  <path d="m47.801 116c-0.44531 0-0.89062-0.074219-1.3164-0.22266l-15.93-5.5586c-2.0859-0.72656-3.1875-3.0078-2.4609-5.0977 0.73047-2.0859 3.0273-3.1797 5.0938-2.4609l10.613 3.7031v-74.023l-29.191-10.27c-2.082-0.73047-3.1797-3.0156-2.4453-5.0977 0.73047-2.0859 3.0078-3.1719 5.1016-2.4453l31.863 11.207c1.6016 0.56641 2.6719 2.0781 2.6719 3.7734v82.492c0 1.2969-0.62891 2.5117-1.6836 3.2617-0.6875 0.48438-1.4961 0.73828-2.3164 0.73828z"/>
  <path d="m111.8 60h-52c-2.2109 0-4-1.7891-4-4s1.7891-4 4-4h52c2.2109 0 4 1.7891 4 4s-1.7891 4-4 4z"/>
  <path d="m98.523 75.359c-1 0-1.9961-0.37109-2.7734-1.1172-1.5938-1.5352-1.6406-4.0664-0.10938-5.6562l13.277-13.797c1.5312-1.5977 4.0625-1.6406 5.6562-0.10937 1.5938 1.5352 1.6406 4.0664 0.10938 5.6562l-13.277 13.797c-0.78516 0.8125-1.832 1.2266-2.8828 1.2266z"/>
  <path d="m112.2 60.359c-1.0508 0-2.0977-0.41016-2.8828-1.2266l-13.273-13.797c-1.5312-1.5898-1.4844-4.125 0.10938-5.6562 1.5938-1.5273 4.125-1.4844 5.6562 0.10937l13.273 13.797c1.5312 1.5898 1.4844 4.125-0.10938 5.6562-0.77734 0.75-1.7734 1.1172-2.7734 1.1172z"/>
  <path d="m35.801 68c-2.2109 0-4-1.7891-4-4v-4c0-2.2109 1.7891-4 4-4 2.2109 0 4 1.7891 4 4v4c0 2.2109-1.7891 4-4 4z"/>
 </g>
</svg>
