<?xml version="1.0" encoding="UTF-8"?>
<svg width="128pt" height="128pt" version="1.1" viewBox="0 0 128 128" xmlns="http://www.w3.org/2000/svg">
 <g fill="#3b6af9">
  <path d="m36 72c0 10.004 5.3359 19.246 14 24.25 8.6641 5 19.336 5 28 0 8.6641-5.0039 14-14.246 14-24.25v-12c0-1.0625-0.42188-2.0781-1.1719-2.8281s-1.7656-1.1719-2.8281-1.1719h-4v-8c0-7.1445-3.8125-13.746-10-17.32-6.1875-3.5742-13.812-3.5742-20 0-6.1875 3.5742-10 10.176-10 17.32v8h-4c-2.2109 0-4 1.7891-4 4zm16-24c0-6.6289 5.3711-12 12-12s12 5.3711 12 12v8h-24z"/>
  <path d="m103.6 24.402c-10.48-10.535-24.738-16.441-39.598-16.402-2.2109 0-4 1.7891-4 4s1.7891 4 4 4c14.746 0 28.672 6.7812 37.766 18.387 9.0977 11.602 12.355 26.746 8.8359 41.062-3.5195 14.32-13.426 26.227-26.863 32.289-13.441 6.0664-28.922 5.6172-41.988-1.2148-13.066-6.8359-22.266-19.293-24.949-33.793-2.6836-14.496 1.4453-29.426 11.199-40.484v7.7539c0 2.2109 1.7891 4 4 4s4-1.7891 4-4v-16c0-1.0625-0.42188-2.0781-1.1719-2.8281s-1.7656-1.1719-2.8281-1.1719h-16c-2.2109 0-4 1.7891-4 4s1.7891 4 4 4h5.0977c-12.484 14.883-16.371 35.172-10.258 53.613 6.1094 18.441 21.34 32.398 40.242 36.879 18.902 4.4805 38.777-1.1562 52.516-14.895 10.504-10.5 16.402-24.746 16.402-39.598s-5.8984-29.098-16.402-39.598z"/>
 </g>
</svg>
