<?xml version="1.0" encoding="UTF-8"?>
<svg width="128pt" height="128pt" version="1.1" viewBox="0 0 128 128" xmlns="http://www.w3.org/2000/svg">
 <g fill="#3b6af9">
  <path d="m96.672 19.688h-13.137v-0.23438c0-2.4844-2.0156-4.5-4.4961-4.5h-6.3789c-0.92969-3.5273-4.4609-6.1562-8.6602-6.1562s-7.7305 2.6328-8.6602 6.1602h-6.375c-2.4844 0-4.5 2.0156-4.5 4.5v0.23438h-13.18c-4.1406 0-7.5117 3.0078-7.5117 6.7031v86.109c0 3.6953 3.3711 6.7031 7.5117 6.7031h65.387c4.168 0 7.5586-3.0078 7.5586-6.7031l-0.003907-86.113c0-3.6914-3.3906-6.7031-7.5547-6.7031zm-7.2578 11.754c1.4062 0 2.5508 0.98438 2.5508 2.1914v71.824c0 1.2109-1.1445 2.1914-2.5508 2.1914l-50.48 0.003906c-1.3867 0-2.5156-0.98438-2.5156-2.1914v-71.824c0-1.2109 1.1289-2.1914 2.5156-2.1914zm-40.449-12.781h7.9883c1.0234 0 1.8516-0.82812 1.8516-1.8516 0-2.375 2.3281-4.3047 5.1953-4.3047 2.8633 0 5.1953 1.9336 5.1953 4.3047 0 1.0234 0.82813 1.8516 1.8516 1.8516h7.9883c0.43359 0 0.78906 0.35547 0.78906 0.79297v8.2812h-31.652v-6.0234c0.003906-0.058594 0.035156-0.10938 0.035156-0.17188 0-0.058593-0.027343-0.11328-0.035156-0.17187v-1.918c0-0.43359 0.35547-0.78906 0.79297-0.78906zm51.555 93.844c0 1.625-1.7617 2.9961-3.8516 2.9961h-65.383c-2.0977 0-3.8047-1.3438-3.8047-2.9961v-86.113c0-1.6523 1.707-2.9961 3.8047-2.9961h13.18v4.3398h-5.5312c-3.4336 0-6.2227 2.6445-6.2227 5.8984v71.824c0 3.2539 2.7891 5.8984 6.2227 5.8984h50.484c3.4492 0 6.2578-2.6445 6.2578-5.8984v-71.824c0-3.2539-2.8086-5.8984-6.2578-5.8984h-5.8789l-0.003906-4.3398h13.137c2.0859 0 3.8516 1.3711 3.8516 2.9961z"/>
  <path d="m60.449 44.949h25.352c1.0234 0 1.8516-0.82812 1.8516-1.8516 0-1.0234-0.82812-1.8516-1.8516-1.8516h-25.352c-1.0234 0-1.8516 0.82812-1.8516 1.8516 0 1.0234 0.82812 1.8516 1.8516 1.8516z"/>
  <path d="m43.828 48.297c0.32812 0.41016 0.82031 0.66016 1.3438 0.69141 0.03125 0.003907 0.066406 0.003907 0.10156 0.003907 0.48828 0 0.96094-0.19141 1.3086-0.54297l8.0781-8.0781c0.72656-0.72656 0.72656-1.8984 0-2.6211-0.72656-0.72656-1.8984-0.72656-2.6211 0l-6.6211 6.6211-1.3984-1.7344c-0.64453-0.79688-1.8086-0.92578-2.6094-0.28125-0.79688 0.64062-0.92188 1.8086-0.28125 2.6094z"/>
  <path d="m60.449 62.582h25.352c1.0234 0 1.8516-0.82812 1.8516-1.8516 0-1.0234-0.82812-1.8516-1.8516-1.8516h-25.352c-1.0234 0-1.8516 0.82812-1.8516 1.8516 0 1.0234 0.82812 1.8516 1.8516 1.8516z"/>
  <path d="m43.828 65.934c0.32812 0.41016 0.82031 0.66016 1.3438 0.69141 0.03125 0.003906 0.066406 0.003906 0.10156 0.003906 0.48828 0 0.96094-0.19141 1.3086-0.54297l8.082-8.0859c0.72656-0.72656 0.72656-1.8984 0-2.6211-0.72656-0.72656-1.8984-0.72656-2.6211 0l-6.6211 6.6211-1.3984-1.7344c-0.64453-0.79688-1.8086-0.92578-2.6094-0.28125-0.79687 0.64062-0.92187 1.8086-0.28125 2.6094z"/>
  <path d="m60.449 80.219h25.352c1.0234 0 1.8516-0.82812 1.8516-1.8516 0-1.0234-0.82812-1.8516-1.8516-1.8516l-25.352-0.003906c-1.0234 0-1.8516 0.82812-1.8516 1.8516 0 1.0234 0.82812 1.8555 1.8516 1.8555z"/>
  <path d="m52.043 73.012-6.6211 6.6211-1.3984-1.7344c-0.64063-0.79688-1.8086-0.92969-2.6055-0.28125-0.79688 0.64062-0.92188 1.8086-0.28125 2.6055l2.6914 3.3438c0.32812 0.41016 0.81641 0.66016 1.3438 0.69141 0.03125 0.003907 0.066406 0.003907 0.10156 0.003907 0.48828 0 0.96094-0.19141 1.3086-0.54297l8.0781-8.0781c0.72656-0.72656 0.72656-1.8984 0-2.6211-0.72266-0.73047-1.8945-0.73047-2.6172-0.007812z"/>
  <path d="m60.449 97.852h25.352c1.0234 0 1.8516-0.82812 1.8516-1.8516s-0.82812-1.8516-1.8516-1.8516h-25.352c-1.0234 0-1.8516 0.82812-1.8516 1.8516s0.82812 1.8516 1.8516 1.8516z"/>
  <path d="m52.043 90.648-6.6211 6.6211-1.3984-1.7344c-0.64063-0.80078-1.8086-0.92578-2.6055-0.28125-0.79688 0.64062-0.92188 1.8086-0.28125 2.6055l2.6914 3.3438c0.32812 0.41016 0.81641 0.66016 1.3438 0.69141 0.03125 0.003907 0.066406 0.003907 0.10156 0.003907 0.48828 0 0.96094-0.19141 1.3086-0.54297l8.0781-8.0781c0.72656-0.72656 0.72656-1.8984 0-2.6211-0.72266-0.73438-1.8945-0.73438-2.6172-0.007812z"/>
 </g>
</svg>
