<?xml version="1.0" encoding="UTF-8"?>
<svg width="128pt" height="128pt" version="1.1" viewBox="0 0 128 128" xmlns="http://www.w3.org/2000/svg">
 <g fill="#3b6af9">
  <path d="m23.48 52.602 39.801 15.398c0.46094 0.17969 0.97656 0.17969 1.4375 0l39.801-15.48c0.76562-0.30078 1.2656-1.0391 1.2656-1.8594 0-0.82031-0.5-1.5586-1.2656-1.8594l-39.801-15.402c-0.46094-0.17578-0.97656-0.17578-1.4375 0l-39.801 15.48c-0.76562 0.30469-1.2656 1.0391-1.2656 1.8594 0 0.82422 0.5 1.5586 1.2656 1.8633zm40.52-15.18 34.281 13.32-34.281 13.258-34.281-13.262z"/>
  <path d="m103.06 57.719-39.059 15.18-39.059-15.18c-0.5-0.21875-1.0664-0.22656-1.5703-0.019531-0.50781 0.20703-0.90234 0.60938-1.1016 1.1172-0.20312 0.50781-0.18359 1.0742 0.042969 1.5703 0.23047 0.49609 0.65234 0.875 1.168 1.0547l39.801 15.48c0.46094 0.17578 0.97656 0.17578 1.4375 0l39.801-15.48c0.51562-0.17969 0.9375-0.55859 1.168-1.0547 0.22656-0.49609 0.24609-1.0625 0.042969-1.5703-0.19922-0.50781-0.59375-0.91016-1.1016-1.1172-0.50391-0.20703-1.0703-0.19922-1.5703 0.019531z"/>
  <path d="m103.06 66.559-39.059 15.18-39.059-15.18c-0.5-0.21875-1.0664-0.22656-1.5703-0.019532-0.50781 0.20703-0.90234 0.60938-1.1016 1.1172-0.20312 0.50781-0.18359 1.0781 0.042969 1.5703 0.23047 0.49609 0.65234 0.875 1.168 1.0547l39.801 15.48c0.46094 0.17578 0.97656 0.17578 1.4375 0l39.801-15.48c0.51562-0.17969 0.9375-0.55859 1.168-1.0547 0.22656-0.49219 0.24609-1.0625 0.042969-1.5703-0.19922-0.50781-0.59375-0.91016-1.1016-1.1172-0.50391-0.20703-1.0703-0.19922-1.5703 0.019532z"/>
  <path d="m103.06 75.398-39.059 15.18-39.059-15.18c-0.5-0.21875-1.0664-0.22656-1.5703-0.019532-0.50781 0.20703-0.90234 0.60938-1.1016 1.1172-0.20312 0.50781-0.18359 1.0781 0.042969 1.5703 0.23047 0.49609 0.65234 0.875 1.168 1.0547l39.801 15.48c0.46094 0.17578 0.97656 0.17578 1.4375 0l39.801-15.48c0.51562-0.17969 0.9375-0.55859 1.168-1.0547 0.22656-0.49219 0.24609-1.0625 0.042969-1.5703-0.19922-0.50781-0.59375-0.91016-1.1016-1.1172-0.50391-0.20703-1.0703-0.19922-1.5703 0.019532z"/>
 </g>
</svg>
