<?xml version="1.0" encoding="UTF-8"?>
<svg width="128pt" height="128pt" version="1.1" viewBox="0 0 128 128" xmlns="http://www.w3.org/2000/svg">
 <path d="m123.36 53.453-32.59-32.59c-1.9727-1.8516-5.043-1.8516-7.0156 0l-14.938 14.977c-1.918 1.9453-1.918 5.0703 0 7.0156l4.0586 4.0078c-2.5586-0.21875-6.3086 1.1523-6.6562 1.125l-9.2812-2.8789 2.2539-2.2383v-0.003906c0.92578-0.92969 1.4453-2.1914 1.4453-3.5078 0.015626-1.3203-0.50781-2.5898-1.4453-3.5195l-14.938-14.977c-1.9727-1.8516-5.043-1.8516-7.0156 0l-32.574 32.578c-0.94141 0.92969-1.4648 2.1953-1.4609 3.5195-0.007813 1.3164 0.51953 2.582 1.4609 3.5078l14.926 14.938c0.92578 0.93359 2.1875 1.4609 3.5039 1.4609 1.3203 0 2.582-0.52734 3.5078-1.4609l1.0234-1.0234c2.6484 5.543 11.52 16.793 17.727 23.039l8.1523 8.1406h0.003906c1.6289 1.8398 3.9414 2.9336 6.3984 3.0195 2.0352-0.019531 3.9766-0.86719 5.3789-2.3438 1.1367-1.0508 1.8555-2.4766 2.0195-4.0156 2.1484 0.55469 4.4297 0.027344 6.1211-1.4102 1.1367-1.0508 1.8555-2.4805 2.0195-4.0195 2.1523 0.55469 4.4414 0.03125 6.1328-1.4062 1.1328-1.0547 1.8477-2.4805 2.0117-4.0195 2.4023 0.66406 4.9766-0.082032 6.6523-1.9297 1.6758-1.8516 2.168-4.4844 1.2695-6.8125 3.1445-2.6836 6.5391-5.0625 10.137-7.1055 1.9375 1.7695 4.9258 1.6953 6.7695-0.16406l14.941-14.887c1.9297-1.9414 1.9297-5.0781 0-7.0156zm-37.734 32c-0.33984-0.035156-0.67188-0.097656-1-0.19141-0.69141-0.1875-1.3984-0.29688-2.1133-0.32031-1.1992-0.027344-2.3594 0.43359-3.2109 1.2812-0.98828 0.99609-1.5625 2.332-1.6133 3.7344 0.007812 0.32031-0.0625 0.63672-0.20703 0.92188-0.33594-0.035156-0.67187-0.097656-0.99609-0.19141-0.69141-0.19141-1.4062-0.30078-2.125-0.32031-1.1992-0.027344-2.3594 0.4375-3.2148 1.2812-0.98047 1-1.5547 2.3242-1.6094 3.7227 0 0.62891 0 0.66406-0.20312 0.92188h-0.003906c-0.33594-0.03125-0.67188-0.097657-0.99609-0.19141-0.69141-0.19531-1.3984-0.30078-2.1133-0.32031-1.1992-0.023438-2.3594 0.4375-3.2148 1.2812-0.98828 1.0273-1.5469 2.3984-1.5586 3.8281-0.0625 0.62891-0.078125 0.65234-0.42188 1.0117-0.5625 0.5625-0.93359 0.5625-1.0625 0.5625-0.83594-0.16016-1.5859-0.61719-2.1133-1.2812l-8.1406-8.1406c-6.6562-7.0508-12.656-14.691-17.922-22.836l20.328-20.285 4.4922 1.2812c-3.75 2.8672-6.7344 6.9766-9.1523 9.957-0.79297 0.98438-1.4219 1.793-1.8672 2.2266-1.9062 1.9062-2.4844 3.8398-1.7266 5.9258h-0.003907c0.78516 1.6367 1.9141 3.0859 3.3047 4.25 1.3047 1.3438 3.1055 2.0977 4.9766 2.0859 3.8398 0 7.5781-2.9297 11.176-5.7852 0.78125-0.61328 3.1484-2.2148 4.6328-3.2109 5.8242 5.3125 11.52 10.508 15.359 14.477 3.3438 3.2344 2.4609 4.1055 2.3203 4.375zm2.5586-8.1016c-0.19141-0.20312-0.32031-0.39844-0.53906-0.61328-5.1953-5.2109-11.992-10.766-16.168-14.77-1.2812-1.2812-3.5859-0.85938-5.3906-0.30859l0.003907-0.003906c-2.4453 0.52734-4.7148 1.6836-6.5781 3.3555-2.3789 1.8828-5.6328 4.4688-7.3984 4.4688v-0.003907c-0.67969-0.33984-1.3125-0.77344-1.8828-1.2773-0.5-0.5 0.98438-2.1641 1.9336-3.3555 3.3398-4.1328 7.7812-8.793 13.594-11.02 4.9297-1.9062 8.3711-1.0898 12.914-1.0117l18.496 18.355c-3.1406 1.8477-6.1367 3.9297-8.9609 6.2344z" fill="#3b6af9"/>
</svg>
